PathFileType	4	(X/Y/Z)	C:/Users/beibeiliu/ov580/test_trc/User3\sequence.32_training_dense_right.trc
DataRate	CameraRate	NumFrames	NumMarkers	Units	OrigDataRate	OrigDataStartFrame	OrigNumFrames
120	120	16	19	mm	120	105	209
Frame#	Time	ThumbCMC			ThumbMCP			ThumbIP			ThumbTip			IndexMCP			IndexPIP			IndexTip			MiddleMCP			MiddlePIP			MiddleTip			RingMCP			RingPIP			RingTip			PinkyMCP			PinkyPIP			PinkyTip			BackHand1			BackHand2			BackHand3	
		X0	Y0	Z0	X1	Y1	Z1	X2	Y2	Z2	X3	Y3	Z3	X4	Y4	Z4	X5	Y5	Z5	X6	Y6	Z6	X7	Y7	Z7	X8	Y8	Z8	X9	Y9	Z9	X10	Y10	Z10	X11	Y11	Z11	X12	Y12	Z12	X13	Y13	Z13	X14	Y14	Z14	X15	Y15	Z15	X16	Y16	Z16	X17	Y17	Z17	X18	Y18	Z18	
104	0.866667	199.15	17.2037	17.7537	174.244	41.2929	-0.347936	145.483	41.8872	-11.3418	123.531	30.7597	-10.3985	158.052	9.86337	-45.5235	134.615	34.4596	-36.7227	145.965	33.3661	-5.91905	143.286	-7.86739	-46.2012	117.953	11.7257	-39.3518	128.627	22.0832	-3.24673	139.854	-30.4481	-33.2393	119.45	-23.1519	-51.4526	92.4041	-13.299	-56.9261	139.744	-44.7531	-7.29028	125.576	-51.9976	-23.1406	112.333	-60.0557	-43.4788	180.009	-41.0798	6.07379	194.979	-44.1984	31.0834	203.28	-19.3057	5.66371	
105	0.875	205.555	17.8132	14.8977	183.458	43.8964	-0.436581	153.756	50.982	-13.7245	129.884	37.349	-12.2806	162.086	15.2869	-47.1452	143.943	39.9816	-39.0259	153.617	40.7647	-8.60405	146.683	-2.23973	-45.7757	125.322	20.0846	-42.5782	136.534	30.5425	-4.4346	141.623	-21.1837	-37.6437	122.247	-12.5728	-53.7644	101.151	-1.00934	-61.2253	138.748	-38.137	-9.79415	124.038	-43.8567	-28.201	111.49	-51.6806	-41.8644	177.313	-37.6233	2.56082	194.757	-42.5675	27.5177	205.648	-17.0288	1.46115	
106	0.883333	213.341	21.1889	14.1358	192.046	46.3265	-1.56156	162.266	53.4624	-15.7984	139.693	43.8228	-13.1323	166.728	16.3848	-47.0149	149.623	40.8657	-41.1974	160.274	41.762	-7.4568	149.812	0.813145	-47.1805	130.777	26.9424	-42.0686	144.518	33.3645	-2.97468	146.759	-18.3898	-39.3287	128.554	-9.99838	-54.8191	108.672	5.80911	-64.8417	140.318	-34.4019	-9.38351	123.66	-41.7421	-28.136	112.114	-49.2303	-40.2292	177.368	-39.3395	2.01007	192.878	-44.4124	29.107	208.221	-18.6057	0.152212	
107	0.891667	217.336	21.3666	15.2409	195.301	43.0163	-2.05113	168.372	52.7368	-18.2946	143.764	44.4943	-18.3681	177.85	18.2628	-50.4513	160.859	47.1299	-42.4098	169.61	41.575	-8.41014	159.272	4.01353	-52.3171	141.608	29.8301	-46.4613	147.547	33.4058	-9.23203	154.768	-17.6303	-41.3933	132.265	-10.4636	-60.1997	116.511	7.70543	-70.0767	144.638	-34.0442	-15.7856	133.941	-39.0508	-29.7841	121.695	-46.4732	-49.1686	181.704	-36.8674	1.51123	197.005	-41.3028	24.4425	214.183	-18.1284	2.34583	
108	0.9	219.668	18.9972	16.3689	200.485	45.1264	-5.5466	175.694	56.5384	-21.3025	150.719	41.7005	-22.5361	187.997	16.2141	-51.6746	168.132	45.2174	-44.2585	176.619	41.779	-11.5882	173.915	1.15688	-52.2655	148.882	25.9441	-52.1932	156.837	34.3115	-14.1182	163.771	-19.8759	-47.5165	145.02	-13.5886	-66.2317	124.698	5.41821	-78.5148	153.079	-35.2332	-22.8587	144.373	-39.1835	-36.5383	131.647	-49.7177	-55.0175	187.761	-36.7199	1.46648	203.198	-40.5037	24.0349	220.963	-19.6217	2.31403	
109	0.908333	225.398	21.2146	15.5738	206.579	42.8571	-4.89031	179.849	51.2665	-26.7112	156.987	36.5541	-28.9224	201.765	15.0196	-52.8489	180.588	41.2198	-51.7754	181.998	40.1263	-14.675	181.224	-1.06118	-58.6741	164.784	25.9259	-58.9481	161.284	31.0885	-20.7698	175.2	-25.3334	-49.1962	162.075	-19.9078	-70.6011	143.325	-1.34706	-86.3298	166.867	-36.2326	-26.2572	155.985	-44.0395	-44.4992	148.329	-50.7371	-63.6152	196.997	-36.5602	-0.362836	206.177	-42.9049	25.6544	225.815	-18.1183	6.44911	
110	0.916667	227.826	23.1103	12.3923	207.747	43.5765	-8.76257	186.427	51.2686	-30.402	161.09	32.6793	-39.2512	209.785	10.6886	-54.3952	187.49	38.1536	-53.1233	188.887	40.3422	-20.3648	200.227	-3.41659	-60.0827	173.499	21.469	-63.3538	169.315	28.1344	-26.0652	191.569	-27.8426	-50.1026	182.043	-20.7899	-80.1063	165.885	-8.31768	-94.3566	178.908	-40.0837	-29.7889	174.805	-45.4291	-49.5752	167.9	-58.87	-68.5921	205.179	-37.7489	-0.0833642	212.188	-39.5098	28.5903	234.343	-17.6683	5.11048	
111	0.925	226.389	23.4819	14.2418	208.106	42.4531	-8.53421	189.08	48.185	-32.7526	168.394	28.447	-43.4096	220.775	13.6046	-56.1663	195.827	37.7741	-56.8304	193.835	38.8805	-23.6755	211.817	-5.03436	-62.3837	189.377	18.4937	-71.4316	176.621	25.5434	-30.5909	206.751	-29.4036	-53.777	201.272	-23.2363	-81.1551	183.96	-12.4546	-103.682	194.006	-39.2042	-31.513	193.349	-49.1313	-53.2631	192.123	-60.3408	-71.6283	219.322	-34.0801	-5.13991	218.676	-40.6308	25.676	242.289	-13.0315	11.1917	
112	0.933333	225.882	27.557	15.7005	206.397	40.4589	-11.2639	188.71	44.1871	-34.9569	172.204	23.1677	-49.3827	230.207	21.0446	-53.5154	199.915	36.9693	-57.6661	192.843	36.6828	-28.8411	224.05	3.71896	-64.9721	198.108	16.3465	-74.2687	180.998	24.4888	-36.5846	226.025	-23.4212	-56.4147	220.104	-20.6697	-84.533	203.474	-12.6704	-108.43	210.124	-41.7377	-34.5849	214.587	-52.5847	-56.0865	218.392	-58.8848	-77.1904	230.565	-34.2712	-5.99657	229.38	-37.1948	24.2572	245.607	-5.75367	10.9804	
113	0.941667	222.239	32.4322	20.6717	200.822	45.8856	-7.04696	187.013	44.0673	-38.6498	175.838	23.7359	-52.6867	234.285	26.7689	-51.6253	205.21	41.5153	-57.7456	191.35	31.2338	-25.1795	232.263	5.70446	-61.0933	200.84	18.2948	-71.7469	182.82	19.7417	-41.9624	238.62	-14.0561	-55.6887	235.071	-15.1202	-83.474	223.053	-4.85189	-109.59	228.794	-39.041	-37.6844	237.949	-43.5828	-57.8918	242.06	-52.5211	-76.0522	240.475	-26.0041	-5.51738	236.436	-30.7543	27.5512	248.57	2.37904	16.5782	
114	0.95	215.495	32.5702	20.4775	196.003	41.4671	-5.10703	184.831	39.983	-33.0405	181.224	19.9944	-54.8225	233.313	37.1578	-47.5635	201.276	40.3948	-54.5526	189.996	27.3457	-26.1683	238.011	15.4491	-60.7313	209.278	24.3038	-71.1888	184.769	16.859	-42.2958	248.809	-2.27246	-53.686	246.754	-0.243443	-82.9205	237.841	3.29636	-104.224	242.361	-32.673	-35.3891	254.37	-34.627	-57.3758	260.782	-39.1772	-76.169	248.88	-20.595	0.707876	246.755	-23.5316	25.0071	248.152	11.1074	20.7948	
115	0.958333	207.396	30.8077	26.3162	187.838	40.2847	-3.9491	178.508	40.4553	-33.0397	182.277	19.5834	-53.4213	231.438	41.9615	-43.7697	197.42	40.6772	-53.2227	188.492	26.581	-22.3328	239.321	28.0734	-55.3837	206.527	23.9769	-70.1451	184.375	11.8001	-39.1012	253.117	4.70165	-49.1543	253.136	14.6861	-76.0985	245.167	16.5185	-102.423	253.233	-18.603	-35.9865	265.373	-17.2459	-56.3842	275.14	-17.4717	-74.4794	253.322	-10.2433	2.85316	248.979	-18.1304	28.6224	248.74	16.1088	21.6365	
116	0.966667	203.506	26.6063	23.9705	182.478	35.0595	-4.65855	173.164	37.365	-35.0742	180.11	20.8308	-54.1443	224.725	48.1283	-40.2498	191.177	39.8842	-50.6464	188.353	19.0203	-23.7222	234.274	37.2612	-52.3273	205.849	25.0519	-67.2272	187.289	5.52879	-41.2295	254.129	19.5819	-49.0424	254.828	24.7764	-73.3153	247.051	28.5184	-97.3236	259.065	-6.1645	-33.9345	269.971	-6.1483	-50.0546	281.388	0.0260739	-72.4767	255.901	1.65249	2.21411	251.926	-11.7321	33.353	242.035	23.4188	28.681	
117	0.975	196.338	22.4975	24.1339	174.495	30.2366	-3.12293	172.625	29.5412	-33.9172	180.847	16.9839	-58.1655	213.614	53.7156	-39.1366	187.714	38.7717	-50.2216	184.704	16.4994	-25.0721	229.967	41.2021	-48.9067	205.874	31.6984	-65.6775	188.03	3.609	-40.5022	253.391	26.6033	-45.2046	251.379	34.6433	-69.074	244.174	40.9193	-96.9698	263.958	1.28893	-33.6347	272.854	5.24427	-47.5938	285.356	13.0781	-69.9168	253.701	9.59895	5.91462	251.042	-10.194	32.2148	235.021	27.4419	26.2713	
118	0.983333	187.763	18.9299	26.3198	172.158	23.9301	-7.50098	165.484	23.7791	-35.2704	181.126	13.1408	-57.7645	208.048	52.7357	-34.946	184.218	35.5107	-52.3443	180.853	12.6107	-26.6481	225.257	42.4204	-44.4274	202.926	28.9932	-65.48	191.036	-1.5011	-41.7254	249.885	33.1231	-45.0679	247.679	39.9068	-70.7396	240.095	45.9606	-93.4139	259.964	6.37459	-28.6242	275.768	12.736	-49.4464	284.136	20.4668	-63.7506	251.633	12.3483	10.5289	249.023	-5.41499	33.707	229.196	28.7698	28.4965	
119	0.991667	181.988	12.4398	22.7691	165.91	15.8439	-8.87233	164.619	16.0558	-37.2688	179.478	6.96526	-58.2076	200.31	50.3484	-34.1316	182.825	28.0492	-54.3445	179.989	6.94707	-30.1132	218.626	43.0035	-47.2932	199.252	23.8401	-65.4539	192.383	-4.38532	-42.9985	241.478	36.4422	-38.9002	242.312	42.9899	-68.3484	235.129	45.9994	-89.5961	259.053	9.01382	-26.0188	271.593	20.82	-45.5779	283.182	28.4312	-60.4892	243.524	15.0014	12.744	243.496	1.54116	35.0594	216.996	27.5925	29.9069	
